<svg width="19" height="18" viewBox="0 0 19 18" fill="none" xmlns="http://www.w3.org/2000/svg">
<g opacity="0.7">
<path d="M18.5798 11.1773C17.3777 15.9988 12.4944 18.933 7.67235 17.7307C2.85229 16.5286 -0.081982 11.645 1.12064 6.82384C2.32214 2.00182 7.20547 -0.932737 12.0261 0.269323C16.8478 1.47138 19.7818 6.35556 18.5798 11.1773Z" fill="#0E0D0F"/>
<path fill-rule="evenodd" clip-rule="evenodd" d="M13.8177 7.71733C13.9968 6.51977 13.085 5.87599 11.8382 5.44652L12.2427 3.82428L11.2552 3.57818L10.8614 5.15768C10.6018 5.09299 10.3352 5.03196 10.0703 4.97149L10.4668 3.38159L9.47994 3.1355L9.07522 4.75718C8.86035 4.70825 8.64941 4.65987 8.44466 4.60896L8.44579 4.6039L7.08398 4.26387L6.82129 5.31856C6.82129 5.31856 7.55394 5.48646 7.53848 5.49687C7.93841 5.59671 8.01069 5.86137 7.9986 6.07118L7.53791 7.91927C7.56548 7.9263 7.60119 7.93643 7.64057 7.95218L7.60713 7.94382L7.60711 7.94382C7.58421 7.93808 7.56047 7.93213 7.53623 7.9263L6.89048 10.5152C6.84154 10.6367 6.71751 10.819 6.43795 10.7498C6.44779 10.7641 5.7202 10.5706 5.7202 10.5706L5.22998 11.7009L6.51501 12.0213C6.65854 12.0573 6.80034 12.0942 6.94066 12.1308C7.03407 12.1552 7.12681 12.1794 7.21898 12.203L6.81032 13.8438L7.79666 14.0899L8.20138 12.4665C8.47082 12.5396 8.73238 12.6071 8.98832 12.6707L8.58501 14.2865L9.57247 14.5326L9.98113 12.8949C11.665 13.2135 12.9312 13.085 13.4641 11.562C13.8936 10.3358 13.4427 9.62842 12.5568 9.16717C13.202 9.01839 13.688 8.59399 13.8177 7.71733ZM11.5607 10.8811C11.2807 12.0061 9.51976 11.541 8.71402 11.3282C8.64153 11.309 8.57677 11.2919 8.52151 11.2782L9.06376 9.10442C9.13103 9.12121 9.21322 9.13965 9.30633 9.16054L9.30637 9.16055C10.1397 9.34755 11.8476 9.73077 11.5607 10.8811ZM9.47452 8.1526C10.1463 8.33188 11.6116 8.72293 11.8668 7.70041C12.1275 6.65453 10.7033 6.33926 10.0078 6.18528C9.92954 6.16796 9.86052 6.15268 9.80416 6.13864L9.31253 8.11019C9.35897 8.12177 9.41347 8.13631 9.47452 8.1526Z" fill="white"/>
</g>
</svg>
