<svg width="30" height="18" viewBox="0 0 30 18" fill="none" xmlns="http://www.w3.org/2000/svg">
<g opacity="0.7">
<path d="M18.9779 16.0773H11.1035V1.92578H18.9779V16.0773Z" fill="#3DAFE2" fill-opacity="0.04"/>
<path d="M11.6103 8.99968C11.6103 6.12897 12.9544 3.57183 15.0475 1.9239C13.5169 0.718857 11.5851 -0.000392914 9.48575 -0.000392914C4.51565 -0.000392914 0.486816 4.02901 0.486816 8.99968C0.486816 13.9704 4.51565 17.9998 9.48575 17.9998C11.5851 17.9998 13.5169 17.2805 15.0475 16.0755C12.9544 14.4275 11.6103 11.8704 11.6103 8.99968Z" fill="#0E0D0F"/>
<path d="M29.5979 8.99968C29.5979 13.9704 25.569 17.9998 20.5989 17.9998C18.4996 17.9998 16.5678 17.2805 15.0366 16.0755C17.1303 14.4275 18.4744 11.8704 18.4744 8.99968C18.4744 6.12897 17.1303 3.57183 15.0366 1.9239C16.5678 0.718857 18.4996 -0.000392914 20.5989 -0.000392914C25.569 -0.000392914 29.5979 4.02901 29.5979 8.99968Z" fill="#0E0D0F" fill-opacity="0.7"/>
</g>
</svg>
