<svg width="63" height="18" viewBox="0 0 63 18" fill="none" xmlns="http://www.w3.org/2000/svg">
<g opacity="0.7">
<path fill-rule="evenodd" clip-rule="evenodd" d="M15.1159 3.17749H11.7165C11.484 3.17734 11.286 3.34643 11.2498 3.57605L9.87498 12.2912C9.86219 12.3731 9.88587 12.4564 9.93979 12.5193C9.99371 12.5822 10.0725 12.6184 10.1553 12.6182H11.7782C12.0108 12.6184 12.2089 12.449 12.2449 12.2192L12.6157 9.86856C12.6517 9.63893 12.8495 9.46964 13.0819 9.4695H14.158C16.3973 9.4695 17.6896 8.38613 18.0271 6.23926C18.1792 5.30001 18.0335 4.56202 17.5936 4.04518C17.1105 3.47765 16.2536 3.17749 15.1159 3.17749ZM15.509 6.36129C15.3231 7.58083 14.3912 7.58083 13.49 7.58083H12.9771L13.3369 5.30326C13.3587 5.1656 13.4774 5.06423 13.6168 5.06422H13.8519C14.4657 5.06422 15.0448 5.06422 15.344 5.41408C15.5225 5.62281 15.5771 5.93291 15.509 6.36129ZM23.6482 6.32032H25.276C25.3587 6.3203 25.4373 6.35654 25.4909 6.41946C25.5446 6.48239 25.5679 6.56568 25.5548 6.64732L24.6751 12.2178C24.6391 12.4476 24.441 12.6169 24.2083 12.6168H22.742C22.6592 12.6167 22.5805 12.5803 22.5268 12.5172C22.473 12.4541 22.4496 12.3706 22.4627 12.2888L22.5353 11.8366C22.5353 11.8366 21.7315 12.7684 20.2821 12.7684C19.4377 12.7684 18.7279 12.5249 18.2318 11.9404C17.691 11.3048 17.4698 10.3934 17.6254 9.44024C17.9246 7.52943 19.461 6.16726 21.2598 6.16726C22.0442 6.16726 22.83 6.33822 23.1824 6.84959L23.2962 7.01458L23.3683 6.55936C23.3901 6.4217 23.5088 6.32033 23.6482 6.32032ZM23.0118 9.48907C22.8548 10.4189 22.1167 11.0431 21.1753 11.0431C20.7026 11.0431 20.3248 10.8915 20.0822 10.6042C19.8417 10.319 19.7502 9.91298 19.8268 9.46074C19.9734 8.53888 20.7239 7.89433 21.6509 7.89433C22.1132 7.89433 22.489 8.04789 22.7365 8.33761C22.9845 8.63032 23.0829 9.03883 23.0118 9.48907ZM32.3114 6.32254H33.9472C34.0526 6.32259 34.1492 6.38115 34.1981 6.47454C34.2469 6.56794 34.2399 6.68073 34.1798 6.76732L28.7391 14.6193C28.6508 14.7465 28.5057 14.8223 28.3509 14.822H26.7171C26.6111 14.8221 26.5139 14.763 26.4653 14.6688C26.4166 14.5746 26.4246 14.4612 26.486 14.3748L28.1799 11.9839L26.3781 6.69724C26.3485 6.61061 26.3627 6.51504 26.4161 6.44067C26.4694 6.3663 26.5555 6.32229 26.647 6.32254H28.2545C28.4633 6.32264 28.6475 6.45952 28.7078 6.65948L29.6641 9.85245L31.9202 6.52977C32.0084 6.40034 32.1547 6.32278 32.3114 6.32254Z" fill="#0E0D0F"/>
<path fill-rule="evenodd" clip-rule="evenodd" d="M50.0532 12.2917L51.4484 3.41703C51.4701 3.27946 51.5885 3.17798 51.7278 3.17749H53.2984C53.3812 3.17764 53.4598 3.21397 53.5135 3.27695C53.5672 3.33992 53.5907 3.42324 53.5778 3.50499L52.202 12.2197C52.1662 12.4498 51.9683 12.6187 51.7352 12.6187H50.3326C50.2498 12.6187 50.1712 12.5825 50.1175 12.5196C50.0638 12.4567 50.0403 12.3734 50.0532 12.2917ZM39.3684 3.17759H35.9686C35.7363 3.17768 35.5385 3.34671 35.5023 3.57615L34.1275 12.2913C34.1146 12.373 34.1381 12.4563 34.1918 12.5192C34.2455 12.5821 34.3241 12.6183 34.4068 12.6183H36.1515C36.3141 12.6181 36.4524 12.4997 36.4776 12.339L36.8677 9.86866C36.9037 9.63903 37.1015 9.46974 37.334 9.4696H38.4096C40.6493 9.4696 41.9411 8.38623 42.2791 6.23936C42.4317 5.3001 42.2851 4.56212 41.8452 4.04528C41.3625 3.47775 40.5061 3.17759 39.3684 3.17759ZM39.7608 6.36129C39.5754 7.58083 38.6434 7.58083 37.7418 7.58083H37.2293L37.5897 5.30326C37.611 5.16557 37.7296 5.06405 37.869 5.06422H38.1041C38.7175 5.06422 39.297 5.06422 39.5963 5.41408C39.7747 5.62281 39.8289 5.93291 39.7608 6.36129ZM47.8993 6.32325H49.5261C49.609 6.32316 49.6878 6.35929 49.7418 6.42216C49.7957 6.48503 49.8196 6.56836 49.8069 6.65025L48.9267 12.2207C48.8907 12.4503 48.6929 12.6196 48.4604 12.6197H46.9946C46.9116 12.6199 46.8326 12.5836 46.7787 12.5205C46.7247 12.4574 46.7012 12.3737 46.7143 12.2917L46.7869 11.8395C46.7869 11.8395 45.9831 12.7713 44.5337 12.7713C43.6893 12.7713 42.9805 12.5278 42.4834 11.9434C41.9426 11.3078 41.7224 10.3963 41.8775 9.44317C42.1767 7.53236 43.7126 6.17019 45.5114 6.17019C46.2958 6.17019 47.0811 6.34115 47.4335 6.85252L47.5478 7.01751L47.6199 6.56229C47.6411 6.42449 47.7598 6.32287 47.8993 6.32325ZM47.2637 9.49054C47.1076 10.4203 46.3685 11.0445 45.4271 11.0445C44.9554 11.0445 44.5766 10.893 44.3341 10.6057C44.0935 10.3205 44.003 9.91444 44.0786 9.46221C44.2262 8.54035 44.9758 7.89579 45.9028 7.89579C46.365 7.89579 46.7408 8.04935 46.9883 8.33908C47.2373 8.63179 47.3357 9.04029 47.2637 9.49054Z" fill="#0E0D0F" fill-opacity="0.7"/>
</g>
</svg>
