<svg width="193" height="48" viewBox="0 0 193 48" fill="none" xmlns="http://www.w3.org/2000/svg">
<g clip-path="url(#clip0_1270_84336)">
<path d="M67.0904 13.1744H74.5211V41.5168H67.0904V13.1744ZM175.806 29.4333V41.4086L168.33 41.3818V12.2998L181.794 23.8878V13.175H189.206V42.5629L175.806 29.4333ZM29.7221 27.2692C29.7221 19.2252 36.2509 12.6968 44.2943 12.6968C47.9193 12.6968 51.2378 14.0312 53.79 16.2224L48.9745 21.6869C47.7122 20.6227 46.0797 19.9825 44.2943 19.9825C40.2725 19.9825 37.0082 23.2468 37.0082 27.2686C37.0082 31.2904 40.2725 34.5547 44.2943 34.5547C46.1067 34.5547 47.7662 33.8875 49.0466 32.7872L53.8531 38.2609C51.3007 40.488 47.9558 41.8319 44.2943 41.8319C36.2503 41.8324 29.7221 35.3126 29.7221 27.2692Z" fill="#0A090A"/>
<path d="M88.6696 48.0001L74.611 10.6492H62.861V41.6248H55.1688V10.6492H38.1438L42.0933 3.20966H80.1025L88.6692 25.5908L97.2452 3.20947H134.046L138.104 10.649H102.737L88.6696 48.0001Z" fill="#0A090A"/>
<path d="M112.422 41.4087V35.1503H117.526C118.356 35.1503 119.934 35.0873 120.33 33.7708C121.151 31.0296 112.747 26.5838 112.747 19.7668C112.747 14.6087 116.48 13.0669 119.014 13.0669H126.751V19.2167H121.971C121.971 19.2167 120.601 19.2167 120.222 19.7668C118.148 22.7337 127.905 27.0709 127.905 35.0423C127.905 39.2084 124.334 41.4087 120.772 41.4087H112.422ZM102.845 13.0663H110.285V41.4087H102.845V13.0663ZM129.113 13.0663H136.553V41.4087H129.113V13.0663ZM24.0769 41.5167L22.1017 36.2417H12.877L10.9024 41.5167H2.99414L17.4945 0L31.9948 41.5167H24.0769ZM15.1312 28.6664H19.523L17.3228 21.4162L15.1312 28.6664ZM137.906 27.2599C137.906 19.2072 144.443 12.6697 152.505 12.6697C160.558 12.6697 167.095 19.2072 167.095 27.2599C167.095 35.3218 160.557 41.8593 152.505 41.8593C144.443 41.8593 137.906 35.3214 137.906 27.2599ZM145.255 27.2599C145.255 31.2635 148.501 34.5101 152.505 34.5101C156.499 34.5101 159.746 31.2637 159.746 27.2599C159.746 23.2653 156.499 20.0189 152.505 20.0189C148.501 20.0189 145.255 23.2647 145.255 27.2599Z" fill="#0A090A"/>
</g>
<defs>
<clipPath id="clip0_1270_84336">
<rect width="186.335" height="48" fill="white" transform="translate(2.93237)"/>
</clipPath>
</defs>
</svg>
