<svg width="164" height="48" viewBox="0 0 164 48" fill="none" xmlns="http://www.w3.org/2000/svg">
<path d="M160.911 38.8542L149.954 24.0908L159.965 10.6885H156.205L148.062 21.6226L139.92 10.6885H136.183L146.171 24.1139L135.237 38.8772H138.997L148.062 26.6513L157.151 38.8772H160.911" fill="#0A090A"/>
<path d="M86.2637 38.8542L75.3296 24.0908L85.318 10.6885H81.581L73.4381 21.6226L65.2952 10.6885H61.5351L71.5465 24.1139L60.5894 38.8772H64.3494L73.4381 26.6513L82.5037 38.8772H86.2637" fill="#0A090A"/>
<path d="M99.3888 35.9015H91.0152V25.6594H99.3888C102.572 25.6594 106.355 26.5129 106.355 30.5498C106.355 35.2095 101.972 35.9015 99.3888 35.9015ZM91.0152 13.6181H99.3888C101.649 13.6181 105.456 14.1717 105.456 18.0932C105.456 21.0459 103.241 22.8221 99.3888 22.8221H91.0152V13.6181ZM107.07 25.1519C106.471 24.6444 105.848 24.2523 105.202 23.9755C107.255 22.8682 108.616 20.7691 108.616 18.347C108.616 16.5477 107.947 10.6885 99.3657 10.6885H87.8088V22.8452H83.9565C83.449 23.4911 82.3187 25.0366 81.8804 25.6594H87.8088V38.8542H99.3657C105.64 38.8542 109.539 35.6939 109.539 30.619C109.562 28.4045 108.708 26.5129 107.07 25.1519Z" fill="#0A090A"/>
<path d="M124.579 36.5016C118.466 36.5016 114.198 31.6805 114.198 24.7602C114.198 17.8399 118.466 13.0187 124.579 13.0187C130.669 13.0187 134.913 17.8399 134.913 24.7602C134.913 31.6574 130.669 36.5016 124.579 36.5016ZM124.579 10.043C116.551 10.043 110.969 16.0867 110.969 24.7602C110.969 33.4336 116.551 39.4774 124.579 39.4774C132.56 39.4774 138.143 33.4336 138.143 24.7602C138.143 16.0867 132.56 10.043 124.579 10.043Z" fill="#0A090A"/>
<path d="M23.5935 47.9003C19.9051 47.5485 16.1688 46.2214 12.9547 44.1213C10.2631 42.3624 9.65546 41.6429 9.65546 40.1984C9.65546 37.3042 12.8375 32.23 18.2741 26.4523C21.3655 23.169 25.6669 19.3207 26.1306 19.422C27.0367 19.6245 34.2695 26.6921 36.9772 30.0127C41.2625 35.2788 43.2346 39.5855 42.2326 41.5043C41.4704 42.9647 36.7533 45.8163 33.2888 46.9089C30.4319 47.815 26.6796 48.1988 23.5935 47.9003ZM6.02571 37.1923C3.79243 33.7598 2.66247 30.3752 2.11347 25.4876C1.93225 23.8726 1.99621 22.9505 2.52389 19.6352C3.17948 15.5044 5.52469 10.7287 8.34961 7.78653C9.55419 6.53397 9.66079 6.50199 11.1265 6.99768C12.9068 7.59998 14.8043 8.91116 17.7518 11.5815L19.4734 13.1379L18.5353 14.2945C14.17 19.6565 9.57018 27.2571 7.83792 31.9582C6.89451 34.5113 6.51608 37.0804 6.92116 38.1464C7.19299 38.8659 6.94248 38.5994 6.02571 37.1923ZM45.2547 37.7733C45.4732 36.6966 45.1961 34.7138 44.5405 32.7151C43.128 28.3871 38.3896 20.3281 34.0403 14.8541L32.6705 13.1325L34.1523 11.7681C36.0871 9.98783 37.4302 8.92182 38.88 8.02105C40.026 7.30683 41.6569 6.67788 42.3605 6.67788C42.7922 6.67788 44.3166 8.2609 45.5479 9.99316C47.456 12.6688 48.8578 15.9202 49.5667 19.2994C50.0251 21.4847 50.0624 26.1591 49.6413 28.3338C49.2949 30.1193 48.5593 32.4379 47.8451 34.0156C47.3068 35.1935 45.9743 37.4801 45.388 38.2263C45.0895 38.5994 45.0895 38.5994 45.2547 37.7733ZM23.9879 5.85706C21.9785 4.83369 18.8817 3.74104 17.1708 3.44256C16.5685 3.34128 15.5505 3.28265 14.8949 3.31464C13.4824 3.38393 13.5464 3.31463 15.8116 2.2433C17.6931 1.35318 19.2655 0.830842 21.3975 0.38312C23.796 -0.123233 28.2999 -0.128563 30.6611 0.37246C33.2089 0.910792 36.2097 2.0301 37.8993 3.06945L38.4003 3.3786L37.249 3.31996C34.9571 3.2027 31.6205 4.13013 28.0334 5.87838C26.9514 6.40605 26.0133 6.82712 25.944 6.81113C25.8801 6.80047 24.9953 6.36874 23.9879 5.85706Z" fill="#0A090A"/>
</svg>
