<svg width="39" height="28" viewBox="0 0 39 28" fill="none" xmlns="http://www.w3.org/2000/svg">
<path fill-rule="evenodd" clip-rule="evenodd" d="M37.6104 12.7868C35.9346 3.42762 32.1879 0.666992 30.1949 0.666992C27.0847 0.666992 26.2867 2.97923 19.6672 3.05713C13.0478 2.97923 12.2498 0.666992 9.13961 0.666992C7.14656 0.666992 3.39796 3.42762 1.7222 12.7868C0.766522 18.1295 -0.270852 26.1055 2.20099 27.063C5.27701 28.2543 6.32008 25.2752 9.6982 22.7577C13.1276 20.2061 14.773 19.6057 19.6672 19.6057C24.5615 19.6057 26.2069 20.2061 29.6363 22.7577C33.0144 25.2733 34.0575 28.2543 37.1335 27.063C39.6054 26.1055 38.568 18.1314 37.6104 12.7868ZM12.0674 14.0009C11.0596 14.0009 10.0931 13.6005 9.3805 12.8879C8.66788 12.1753 8.26753 11.2087 8.26753 10.201C8.26753 9.19316 8.66788 8.22663 9.3805 7.51401C10.0931 6.80139 11.0596 6.40105 12.0674 6.40105C13.0752 6.40105 14.0418 6.80139 14.7544 7.51401C15.467 8.22663 15.8673 9.19316 15.8673 10.201C15.8673 11.2087 15.467 12.1753 14.7544 12.8879C14.0418 13.6005 13.0752 14.0009 12.0674 14.0009ZM25.3671 14.0009C24.8632 14.0009 24.3799 13.8007 24.0236 13.4444C23.6673 13.0881 23.4672 12.6048 23.4672 12.1009C23.4672 11.597 23.6673 11.1137 24.0236 10.7574C24.3799 10.4011 24.8632 10.201 25.3671 10.201C25.871 10.201 26.3543 10.4011 26.7106 10.7574C27.0669 11.1137 27.2671 11.597 27.2671 12.1009C27.2671 12.6048 27.0669 13.0881 26.7106 13.4444C26.3543 13.8007 25.871 14.0009 25.3671 14.0009ZM29.167 10.201C28.6631 10.201 28.1799 10.0008 27.8235 9.64447C27.4672 9.28816 27.2671 8.8049 27.2671 8.301C27.2671 7.7971 27.4672 7.31384 27.8235 6.95753C28.1799 6.60122 28.6631 6.40105 29.167 6.40105C29.6709 6.40105 30.1542 6.60122 30.5105 6.95753C30.8668 7.31384 31.067 7.7971 31.067 8.301C31.067 8.8049 30.8668 9.28816 30.5105 9.64447C30.1542 10.0008 29.6709 10.201 29.167 10.201Z" fill="url(#paint0_linear_3319_4124)"/>
<path fill-rule="evenodd" clip-rule="evenodd" d="M37.6104 12.7868C35.9346 3.42762 32.1879 0.666992 30.1949 0.666992C27.0847 0.666992 26.2867 2.97923 19.6672 3.05713C13.0478 2.97923 12.2498 0.666992 9.13961 0.666992C7.14656 0.666992 3.39796 3.42762 1.7222 12.7868C0.766522 18.1295 -0.270852 26.1055 2.20099 27.063C5.27701 28.2543 6.32008 25.2752 9.6982 22.7577C13.1276 20.2061 14.773 19.6057 19.6672 19.6057C24.5615 19.6057 26.2069 20.2061 29.6363 22.7577C33.0144 25.2733 34.0575 28.2543 37.1335 27.063C39.6054 26.1055 38.568 18.1314 37.6104 12.7868ZM12.0674 14.0009C11.0596 14.0009 10.0931 13.6005 9.3805 12.8879C8.66788 12.1753 8.26753 11.2087 8.26753 10.201C8.26753 9.19316 8.66788 8.22663 9.3805 7.51401C10.0931 6.80139 11.0596 6.40105 12.0674 6.40105C13.0752 6.40105 14.0418 6.80139 14.7544 7.51401C15.467 8.22663 15.8673 9.19316 15.8673 10.201C15.8673 11.2087 15.467 12.1753 14.7544 12.8879C14.0418 13.6005 13.0752 14.0009 12.0674 14.0009ZM25.3671 14.0009C24.8632 14.0009 24.3799 13.8007 24.0236 13.4444C23.6673 13.0881 23.4672 12.6048 23.4672 12.1009C23.4672 11.597 23.6673 11.1137 24.0236 10.7574C24.3799 10.4011 24.8632 10.201 25.3671 10.201C25.871 10.201 26.3543 10.4011 26.7106 10.7574C27.0669 11.1137 27.2671 11.597 27.2671 12.1009C27.2671 12.6048 27.0669 13.0881 26.7106 13.4444C26.3543 13.8007 25.871 14.0009 25.3671 14.0009ZM29.167 10.201C28.6631 10.201 28.1799 10.0008 27.8235 9.64447C27.4672 9.28816 27.2671 8.8049 27.2671 8.301C27.2671 7.7971 27.4672 7.31384 27.8235 6.95753C28.1799 6.60122 28.6631 6.40105 29.167 6.40105C29.6709 6.40105 30.1542 6.60122 30.5105 6.95753C30.8668 7.31384 31.067 7.7971 31.067 8.301C31.067 8.8049 30.8668 9.28816 30.5105 9.64447C30.1542 10.0008 29.6709 10.201 29.167 10.201Z" fill="black" fill-opacity="0.2"/>
<defs>
<linearGradient id="paint0_linear_3319_4124" x1="0.667969" y1="13.7781" x2="38.6663" y2="13.7781" gradientUnits="userSpaceOnUse">
<stop stop-color="#3DAFE2"/>
<stop offset="1" stop-color="#6F76C0"/>
</linearGradient>
</defs>
</svg>
