<svg width="85" height="48" viewBox="0 0 85 48" fill="none" xmlns="http://www.w3.org/2000/svg">
<path fill-rule="evenodd" clip-rule="evenodd" d="M52.6339 0L36.3116 25.7287H18.4669L22.6169 19.3659H33.6829L37.6945 13.0027H12.9341L8.92294 19.3659H14.8708L6.70923 32.0919H40.0462L52.6339 12.0344L57.1992 19.3659H53.3259L49.1756 25.7287H61.2099L65.222 32.0919H72.9677L52.6339 0Z" fill="#0A090A"/>
<path fill-rule="evenodd" clip-rule="evenodd" d="M47.2394 0.138184H20.9574L16.9458 6.50141H43.2278L47.2394 0.138184Z" fill="#0A090A"/>
<path fill-rule="evenodd" clip-rule="evenodd" d="M75.5966 37.625H75.0428V35.4121H74.4895V34.9971H76.1491V35.4121H75.5966V37.625ZM78.5011 35.9655L77.8095 37.625H77.6711L76.9795 35.9655L76.7024 37.625H76.1491L76.7024 34.8584H77.1178L77.8095 36.6567L78.3628 34.8584H78.7782L79.1924 37.625H78.6399L78.5011 35.9655ZM8.09235 37.21V45.5103H15.7001V42.6054H11.689V40.3916H18.0518V44.957C18.0518 47.4465 17.3601 48.0003 15.4239 48.0003H8.23068C6.29405 48.0003 5.74072 47.4469 5.74072 44.957V38.0404C5.74072 35.5509 6.29405 34.8588 8.23068 34.8588H15.4239C17.3601 34.8588 18.0518 35.5505 18.0518 37.9021V38.7321H15.7001V37.21H8.09235ZM23.0317 42.7437L25.3833 37.4867L27.5966 42.7437H23.0317ZM18.3288 47.9998H20.8188L22.0638 45.0949H28.5653L29.8103 47.9998H32.5769L26.6291 34.8584H24.2775L18.3288 47.9998ZM33.9594 34.8584H35.896L40.7376 42.8812L45.5788 34.8584H47.5158V47.9998H45.3021V39.8387C45.3021 39.7004 45.3021 39.1471 45.4404 38.455C45.1638 39.1467 44.8871 39.5621 44.7496 39.8387L40.8759 46.4778H40.3226L36.4498 39.8387C36.1731 39.4237 36.0348 39.0087 35.8965 38.455V47.9998H33.9598L33.9594 34.8584ZM49.7291 34.8584H60.3798V37.0717H52.2187V40.115H56.9215V42.3287H52.2187V45.5103H60.5181V47.9998H49.7291V34.8584ZM70.3396 40.2533H65.2218V37.0717H71.1696V38.8704H73.5208V37.9017C73.5208 35.6888 72.6912 34.9967 70.0625 34.9967H66.1901C63.5618 34.9967 62.7318 35.6884 62.7318 38.1783V39.2854C62.7318 41.7749 63.5618 42.467 66.1901 42.467H71.1696V45.787H64.8064V43.8499H62.1781V44.8186C62.1781 47.3082 63.0081 48.0003 65.6363 48.0003H70.3392C72.9675 48.0003 73.7975 47.3086 73.7975 44.8186V43.4349C73.7979 40.945 72.9675 40.2533 70.3396 40.2533Z" fill="#0A090A"/>
</svg>
