<svg width="58" height="48" viewBox="0 0 58 48" fill="none" xmlns="http://www.w3.org/2000/svg">
<g clip-path="url(#clip0_1271_92624)">
<g clip-path="url(#clip1_1271_92624)">
<path fill-rule="evenodd" clip-rule="evenodd" d="M59.5813 36.5728C58.3822 38.0857 55.4443 39.1649 55.4443 39.1649L33.5893 47.0151V41.2258L49.6731 35.495C51.4983 34.8411 51.7786 33.9166 50.295 33.4314C48.8142 32.9448 46.1329 33.0842 44.3063 33.7409L33.5893 37.5154V31.5072L34.207 31.298C34.207 31.298 37.3038 30.2021 41.6584 29.7196C46.0129 29.24 51.3449 29.7852 55.5308 31.3719C60.2478 32.8625 60.7791 35.06 59.5813 36.5728ZM35.6697 26.7148V11.9096C35.6697 10.1709 35.349 8.57017 33.7176 8.11701C32.4683 7.71683 31.693 8.87693 31.693 10.6143V47.69L21.6941 44.5164V0.310059C25.9455 1.09926 32.1392 2.9649 35.4689 4.08735C43.9368 6.99456 46.8077 10.6129 46.8077 18.7656C46.8077 26.712 41.9024 29.7238 35.6697 26.7148ZM3.34731 40.6206C-1.49526 39.257 -2.30119 36.4153 -0.0939431 34.7783C1.94599 33.2669 5.41512 32.1291 5.41512 32.1291L19.7518 27.0313V32.843L9.43503 36.5352C7.61261 37.1892 7.33235 38.115 8.81315 38.6002C10.2953 39.0855 12.9781 38.9474 14.8033 38.2921L19.7518 36.4962V41.6957C19.4381 41.7515 19.0881 41.8072 18.7646 41.8616C13.8147 42.6703 8.54264 42.3329 3.34731 40.6206ZM56.3966 42.9227C57.0227 42.9227 57.6097 43.1653 58.0517 43.6129C58.4937 44.0535 58.7378 44.6419 58.7378 45.2666C58.7378 45.8941 58.4937 46.4797 58.0517 46.9203C57.6097 47.3651 57.0227 47.6077 56.3966 47.6077C55.7706 47.6077 55.185 47.3651 54.7416 46.9203C54.2995 46.4797 54.0569 45.8941 54.0569 45.2666C54.0569 43.9754 55.1055 42.9227 56.3966 42.9227ZM54.4501 45.2666C54.4501 45.7867 54.6523 46.2761 55.0204 46.6414C55.3871 47.0123 55.8779 47.2131 56.3966 47.2131C57.4717 47.2131 58.3432 46.3403 58.3432 45.2666C58.3432 44.7451 58.1424 44.2557 57.7729 43.889C57.4062 43.5181 56.9153 43.3187 56.3966 43.3187C55.8779 43.3187 55.3871 43.5181 55.0204 43.889C54.6523 44.2557 54.4501 44.7451 54.4501 45.2666ZM57.1036 44.0047C57.3601 44.1177 57.4898 44.3352 57.4898 44.6447C57.4898 44.8037 57.4563 44.9375 57.388 45.0421C57.3392 45.1174 57.2695 45.1788 57.1914 45.2318C57.2528 45.268 57.3071 45.3112 57.3476 45.3614C57.4034 45.4339 57.4354 45.5497 57.4396 45.7072L57.4522 46.0405C57.4564 46.1297 57.4619 46.198 57.4759 46.2399C57.4898 46.3012 57.5163 46.3403 57.5498 46.3528L57.5846 46.3695V46.4072V46.4644V46.5215H57.5275H57.1134H57.0799L57.0632 46.4923C57.0492 46.4644 57.0395 46.4323 57.0297 46.3905C57.0227 46.3528 57.0157 46.2873 57.0116 46.1869L56.9906 45.7728C56.985 45.6292 56.9362 45.5399 56.8442 45.4925C56.7871 45.466 56.6922 45.4535 56.564 45.4535H55.8542V46.4644V46.5215H55.7957H55.4582H55.4011V46.4644V43.9727V43.9155H55.4582H56.6114C56.8094 43.9155 56.9753 43.9448 57.1036 44.0047ZM55.8542 45.0547H56.5765C56.7215 45.0547 56.8373 45.0282 56.9195 44.9738C56.9948 44.9194 57.0311 44.8204 57.0311 44.6768C57.0311 44.5206 56.9795 44.4188 56.8707 44.3645C56.8108 44.3352 56.7271 44.3185 56.6211 44.3185H55.8542V45.0547Z" fill="#0A090A"/>
</g>
</g>
<defs>
<clipPath id="clip0_1271_92624">
<rect width="57" height="48" fill="white" transform="translate(0.733398)"/>
</clipPath>
<clipPath id="clip1_1271_92624">
<rect width="62.0078" height="48" fill="white" transform="translate(-1.57056)"/>
</clipPath>
</defs>
</svg>
