<svg width="114" height="48" viewBox="0 0 114 48" fill="none" xmlns="http://www.w3.org/2000/svg">
<g clip-path="url(#clip0_1270_84947)">
<path d="M52.9487 11.7684C54.2241 12.4061 55.9052 11.6524 56.6588 10.0872C57.4125 8.522 57.0067 6.78287 55.6733 6.14519C54.398 5.50751 52.7168 6.26113 51.9632 7.82635C51.2675 9.3336 51.6733 11.1307 52.9487 11.7684Z" fill="#0A090A"/>
<path d="M108.137 17.5074C108.022 17.3335 107.674 17.5074 107.152 17.9711C106.108 18.8987 105.065 19.6523 103.906 20.174C102.746 20.6958 101.703 21.0436 100.717 21.1595C99.7317 21.2755 98.8621 21.2175 98.0505 20.9277C97.2389 20.6378 96.7172 20.174 96.3693 19.5364C98.1664 19.3045 99.7896 18.7827 101.239 17.9711C102.688 17.1016 103.848 16.1161 104.717 15.0146C105.587 13.9132 106.166 12.7538 106.398 11.5943C106.63 10.4349 106.572 9.39143 106.108 8.52187C105.703 7.82621 105.123 7.30448 104.369 6.95665C103.616 6.60882 102.746 6.49288 101.819 6.49288C100.891 6.55085 99.9056 6.72477 98.8621 7.07259C97.8186 7.42042 96.8331 8.00013 95.9056 8.75375C94.978 9.50737 94.1085 10.3769 93.3548 11.4204C92.6012 12.4639 91.9635 13.6813 91.5577 15.0726C91.1519 16.5798 90.978 17.9132 91.094 19.1306C91.1519 19.4784 91.1519 19.8262 91.2679 20.174L91.2099 20.232C90.5722 20.7538 89.9925 21.1595 89.3548 21.3914C88.7172 21.6233 88.2534 21.6813 87.9635 21.5653C87.7317 21.5074 87.4998 21.4494 87.3259 21.2755C87.1519 21.1016 87.094 20.8117 87.036 20.4059C87.036 20.0001 87.094 19.4784 87.2679 18.7827C87.4418 18.0871 87.7896 17.2755 88.3114 16.29C88.8911 15.1306 89.3548 14.1451 89.7027 13.2175C90.0505 12.29 90.2824 11.5943 90.3983 10.8987C90.4563 10.261 90.3983 9.68129 90.2244 9.27549C89.9925 8.81172 89.5867 8.4639 88.949 8.17404C88.4273 7.94216 87.7896 7.94216 87.094 8.11607C86.3404 8.28998 85.5288 8.75375 84.6592 9.39143C83.7896 10.0871 82.8041 11.0146 81.7606 12.232C80.7172 13.4494 79.6737 14.9566 78.5722 16.8117C79.1519 15.0146 79.6737 13.2175 80.3114 11.4204C80.8911 9.56534 81.4708 7.88419 81.9345 6.37694C82.4563 4.86969 82.8621 3.59433 83.2099 2.55085C83.5577 1.50737 83.7317 0.869692 83.7896 0.695779C83.9056 0.405924 83.7317 0.232011 83.3259 0.116069C82.9201 0.000127023 82.3983 0.000127023 81.8766 0.058098C81.2969 0.116069 80.7751 0.232011 80.2534 0.463895C79.7317 0.695779 79.3838 0.985634 79.2679 1.33346C79.2099 1.56534 78.978 2.261 78.5722 3.36245C78.1664 4.4639 77.7027 5.8552 77.1809 7.47839C76.6592 9.10158 76.0215 10.8407 75.4418 12.7538C74.8041 14.6668 74.2244 16.5219 73.6447 18.319C73.1809 19.8262 72.7751 21.2175 72.4273 22.4929C72.3693 22.5509 72.2534 22.6088 72.1954 22.6668C70.9201 23.8262 69.5288 24.6378 68.1374 25.1596C66.7461 25.6813 65.5288 25.9132 64.3693 25.7972C63.2679 25.6813 62.3983 25.2755 61.7606 24.5798C61.123 23.8842 60.8911 22.8407 61.123 21.5653C61.2969 20.5798 61.6447 19.6523 62.1664 18.7827C62.6882 17.9132 63.2679 17.2175 63.9056 16.6958C64.5433 16.1161 65.123 15.7682 65.7606 15.5364C66.3983 15.3045 66.8621 15.3624 67.2099 15.5943C67.3838 15.7682 67.4998 16.0001 67.3838 16.348C67.3259 16.6378 67.2099 16.9856 66.978 17.3914C66.7461 17.7393 66.5143 18.1451 66.2824 18.5509C66.0505 18.9566 65.8186 19.3045 65.5867 19.5943C65.3548 20.0001 65.2969 20.29 65.5288 20.6378C65.7606 20.9277 66.1085 21.1595 66.5722 21.2755C67.036 21.3914 67.6157 21.3914 68.2534 21.2755C68.8911 21.1595 69.4708 20.8117 70.0505 20.348C70.5722 19.8842 70.978 19.3045 71.3259 18.6668C71.6157 18.0291 71.8476 17.3914 71.9635 16.6958C72.0795 16.0001 72.0215 15.3045 71.8476 14.6668C71.6737 14.0291 71.3838 13.3914 70.978 12.8697C70.2824 11.9422 69.2389 11.4204 67.9056 11.3045C66.5722 11.1306 65.1809 11.3624 63.6737 11.9422C62.2244 12.5219 60.8331 13.5074 59.5577 14.8407C58.2824 16.174 57.2969 17.8552 56.6592 19.9422C56.2534 21.4494 56.0795 22.7827 56.1954 23.9422C56.2534 24.29 56.2534 24.5798 56.3114 24.8697C56.2534 24.9277 56.1954 24.9856 56.0795 25.0436C54.6882 26.1451 53.6447 26.5509 52.949 26.1451C52.2534 25.7972 52.0795 24.8117 52.3693 23.3045C52.6592 22.0291 53.065 20.6378 53.5288 19.1885C53.9925 17.7393 54.6302 16.29 55.3259 14.8407C55.4998 14.5509 55.3838 14.319 55.036 14.261C54.6882 14.1451 54.2244 14.1451 53.6447 14.261C53.123 14.319 52.5432 14.4929 51.9635 14.6668C51.3838 14.8407 50.978 15.1306 50.7461 15.4204C50.5143 15.7103 50.2824 16.1161 49.9925 16.7538C49.7027 17.3914 49.4128 18.0291 49.123 18.8407C48.8331 19.5943 48.6012 20.4059 48.3114 21.2175C48.0795 22.0291 47.8476 22.7827 47.6737 23.4204C47.4418 24.348 47.2099 25.2755 47.094 26.203V26.261C45.7027 27.3624 44.6012 27.7682 43.9056 27.4204C43.2099 27.0726 43.036 26.0871 43.3838 24.5798C43.4998 23.9422 43.6737 23.1885 43.9635 22.3769C44.1954 21.5653 44.4853 20.6958 44.8331 19.8262L45.8766 17.2175C46.2244 16.348 46.5722 15.5943 46.9201 14.8407C47.036 14.5509 46.9201 14.3769 46.5722 14.261C46.2244 14.1451 45.7606 14.1451 45.2389 14.203C44.7172 14.261 44.1374 14.4349 43.5577 14.6088C42.978 14.8407 42.5722 15.0726 42.3403 15.4204C42.1085 15.7103 41.8766 16.174 41.5288 16.9277C41.1809 17.6813 40.8331 18.4929 40.4853 19.3624C40.1374 20.232 39.7896 21.1595 39.4998 22.1451C39.1519 23.0726 38.9201 23.8842 38.7461 24.5219L38.5722 25.1596C38.1664 25.9711 37.6447 26.5509 37.065 27.0146C36.4853 27.4784 35.9635 27.7103 35.4998 27.8262C35.036 27.8842 34.6302 27.7682 34.3403 27.4204C34.0505 27.0726 33.9925 26.4929 34.2244 25.6813C34.3983 25.0436 34.5722 24.29 34.8621 23.4784C35.094 22.6668 35.3838 21.7972 35.6737 20.9277C35.9635 20.0581 36.3114 19.1885 36.6592 18.319C37.007 17.4494 37.3548 16.6958 37.7027 15.9422C37.8766 15.6523 37.7606 15.4784 37.4128 15.3624C37.007 15.2465 36.5432 15.2465 36.0215 15.3045C35.4998 15.3624 34.9201 15.5364 34.3403 15.7103C33.7606 15.9422 33.3548 16.174 33.123 16.5219C32.949 16.8117 32.7172 17.2755 32.3693 18.0291C32.0215 18.7827 31.6737 19.5943 31.3259 20.4639C30.978 21.3335 30.6302 22.261 30.3403 23.2465C29.9925 24.174 29.7606 24.9856 29.6447 25.6233C29.4128 26.5509 29.1809 27.4784 29.065 28.4059C28.949 29.3335 28.949 30.1451 29.065 30.8987C29.1809 31.6523 29.5288 32.174 29.9925 32.5798C30.4563 32.9856 31.2099 33.1016 32.1954 32.9856C33.5867 32.8117 34.8041 32.232 35.7317 31.3624C36.7172 30.4929 37.4708 29.5074 38.0505 28.4639C38.0505 29.5653 38.2824 30.3769 38.7461 31.0726C39.2099 31.7103 40.0795 31.9422 41.2969 31.7682C42.1085 31.6523 42.8621 31.3624 43.6157 30.9567C44.3114 30.5509 45.007 30.0291 45.5288 29.5074C46.1085 28.9856 46.5722 28.4639 46.9201 27.8842C46.9201 28.0581 46.978 28.29 46.978 28.4639C47.1519 29.2175 47.4418 29.7393 47.9635 30.1451C48.4273 30.5509 49.1809 30.6668 50.1664 30.5509C51.3838 30.3769 52.4853 29.9132 53.4708 29.1016C54.4563 28.29 55.2099 27.4784 55.7896 26.7248C56.0215 26.3769 56.2534 26.0871 56.3693 25.7972C56.5432 26.203 56.7172 26.5509 56.949 26.8987C57.5288 27.7682 58.2824 28.4639 59.3259 28.9277C60.3114 29.3914 61.5288 29.6813 62.9201 29.6233C64.1954 29.6233 65.4128 29.3914 66.5143 28.9277C67.6157 28.4639 68.6012 27.8842 69.4708 27.1885C70.2824 26.5509 70.978 25.8552 71.5577 25.1596C71.3838 25.8552 71.2679 26.4929 71.2099 26.9567C71.1519 27.2465 71.3838 27.4204 71.8476 27.5364C72.3114 27.6523 72.7751 27.6523 73.3548 27.5943C73.9346 27.5364 74.4563 27.4204 74.978 27.1885C75.4998 26.9567 75.7896 26.7248 75.8476 26.319C75.9056 26.0291 75.9635 25.6813 76.0215 25.2755C76.0795 24.8697 76.1954 24.4059 76.3693 23.8262C76.8331 22.9566 77.4128 21.9711 78.1664 20.8117C78.9201 19.6523 79.6737 18.5509 80.4273 17.5074C81.1809 16.4639 81.9346 15.5943 82.5722 14.8987C83.2679 14.203 83.7317 13.7972 84.0215 13.7393C84.3693 13.7393 84.5432 13.8552 84.5432 14.203C84.5432 14.4929 84.4853 14.9566 84.2534 15.4784C84.0795 16.0001 83.7896 16.6958 83.4418 17.3914C83.094 18.1451 82.7461 18.8987 82.3983 19.7103C82.0505 20.5798 81.7606 21.3914 81.7027 22.1451C81.5867 22.8987 81.6447 23.5943 81.8186 24.174C81.9925 24.7538 82.3403 25.2175 82.8621 25.5074C83.3838 25.7972 84.0795 25.9132 84.949 25.7972C86.3983 25.6233 87.6157 25.1016 88.6592 24.29C89.7027 23.4784 90.5143 22.6668 91.094 21.8552C91.2679 21.5653 91.4418 21.3335 91.5577 21.1016C91.6737 21.4494 91.8476 21.7972 92.0795 22.0871C92.6592 22.9566 93.4708 23.6523 94.4563 24.1161C95.4998 24.5798 96.6592 24.8117 97.9925 24.8117C99.3259 24.8117 100.543 24.5798 101.645 24.1161C102.746 23.6523 103.732 23.0726 104.601 22.3769C105.471 21.6813 106.166 20.9856 106.746 20.29C107.326 19.5364 107.732 18.9566 107.964 18.4349C108.195 18.0291 108.253 17.6813 108.137 17.5074ZM97.4128 13.6813C97.9346 12.8697 98.5722 12.232 99.2099 11.6523C99.8476 11.1306 100.485 10.7248 101.065 10.4929C101.645 10.261 102.108 10.261 102.398 10.4929C102.746 10.7827 102.804 11.1885 102.63 11.7103C102.456 12.29 102.05 12.8697 101.413 13.4494C100.833 14.0291 100.079 14.6088 99.1519 15.1306C98.2244 15.6523 97.2389 16.0001 96.1954 16.174C96.4853 15.3624 96.8911 14.4929 97.4128 13.6813Z" fill="#0A090A"/>
<path d="M32.4851 35.536C32.1372 35.594 31.7314 35.652 31.3256 35.7099C30.8619 35.7679 30.3981 35.7679 29.9343 35.7099C29.4706 35.652 28.9488 35.594 28.4851 35.4201C28.0213 35.2462 27.6155 35.0143 27.2097 34.7244C26.3981 34.1447 25.7025 33.2752 24.9488 32.2317C24.7749 31.9418 24.601 31.7099 24.3691 31.4201C24.8909 30.7244 25.3546 29.9708 25.8184 29.1592C27.0358 27.0723 28.0213 24.8114 28.7749 22.3766C29.5285 19.9418 29.9923 17.507 30.1662 15.1882C30.3401 12.8694 30.2242 10.7824 29.7604 8.81138C29.3546 6.89834 28.543 5.39109 27.3256 4.34762C26.7459 3.88385 26.0503 3.65196 25.1227 3.65196C24.1952 3.65196 23.3836 3.82588 22.572 4.1737C22.63 3.1882 22.514 2.31863 22.1662 1.56501C21.8764 0.811384 21.2967 0.521529 20.4271 0.637471C18.4561 1.10124 16.659 2.02878 15.0358 3.47805C13.3546 4.92733 11.9054 6.66646 10.63 8.63747C9.52854 10.7244 8.42709 12.8114 7.55753 15.0723C6.68796 17.3331 6.10825 19.4201 5.76042 21.4491C5.29666 24.0578 5.29666 26.3766 5.76042 28.4636C6.22419 30.5505 6.91984 32.2896 7.96332 33.623C9.0068 35.0143 10.2242 35.9998 11.6735 36.6375C13.1227 37.2752 14.688 37.4491 16.3111 37.1592C17.7025 36.9273 19.1517 36.2896 20.601 35.3041C20.7749 35.4201 20.8909 35.594 21.0648 35.7679C21.7025 36.3476 22.3981 36.9273 23.1517 37.3911C23.9054 37.8549 24.7749 38.2607 25.7025 38.4925C26.572 38.7244 27.4996 38.7824 28.3111 38.7244C29.1227 38.6665 29.8764 38.3766 30.4561 38.1447C31.0358 37.8549 31.5575 37.507 31.9633 37.2172C32.3691 36.8694 32.659 36.5795 32.8909 36.2896C33.1227 35.9998 33.2967 35.7679 33.4126 35.652C33.5285 35.4781 33.5865 35.4201 33.5865 35.4201C33.5865 35.4201 33.4706 35.3621 33.2967 35.3621C33.1227 35.4201 32.8329 35.4781 32.4851 35.536ZM23.4416 16.8694C23.2097 18.6665 22.7459 20.5215 22.1083 22.2607C21.5285 23.8259 20.8909 25.2172 20.1952 26.4346C20.0793 26.3766 19.9054 26.3186 19.7894 26.2607C19.3256 26.0867 18.8039 25.9708 18.3981 25.9128C17.4706 25.8549 16.7749 26.0288 16.1952 26.3186C15.6155 26.5505 15.2677 26.8983 14.9778 27.1882C14.688 27.4781 14.514 27.7099 14.3981 27.9418C14.3401 28.0578 14.2822 28.1157 14.2822 28.1737C14.2822 28.2317 14.2242 28.2317 14.2242 28.2317H14.2822C14.3401 28.2317 14.3981 28.2896 14.514 28.2896C14.7459 28.3476 15.0358 28.4056 15.3256 28.5215C15.6735 28.6375 16.0213 28.7534 16.4271 28.9273C16.7749 29.1012 17.1227 29.3331 17.2967 29.623C17.4126 29.7969 17.4706 29.9128 17.4706 30.0868C17.1807 30.3766 16.8909 30.6085 16.601 30.7824C15.4996 31.4781 14.572 31.7099 13.7604 31.4781C12.9488 31.2462 12.3111 30.6085 11.9054 29.507C11.4996 28.4636 11.3256 27.0723 11.4996 25.3911C11.6155 23.7679 11.9633 22.0867 12.4851 20.2317C13.0068 18.4346 13.7025 16.6375 14.514 15.0143C15.3256 13.3331 16.3111 11.8259 17.4706 10.5505C18.63 9.27515 19.8474 8.28965 21.2387 7.76791C22.3401 8.81138 23.0358 10.2027 23.3836 11.8259C23.6735 13.3331 23.7314 15.0723 23.4416 16.8694ZM50.514 36.0578C51.4416 36.0578 52.0793 36.3476 52.543 36.8694C52.9488 37.3911 53.1807 38.1447 53.1807 39.0143V39.9998H51.9633V38.8983C51.9633 38.3766 51.8474 37.9708 51.6155 37.623C51.3836 37.3331 51.0358 37.1592 50.572 37.1592C50.1083 37.1592 49.7604 37.3331 49.5285 37.623C49.2967 37.9128 49.1807 38.3186 49.1807 38.8983V45.1012C49.1807 45.623 49.2967 46.0288 49.5285 46.3766C49.7604 46.6665 50.1083 46.8404 50.572 46.8404C51.0358 46.8404 51.3836 46.6665 51.6155 46.3766C51.8474 46.0868 51.9633 45.681 51.9633 45.1012V42.7244H50.688V41.565H53.1227V45.0433C53.1227 45.9128 52.8909 46.6665 52.4851 47.1882C52.0793 47.7099 51.3836 47.9998 50.4561 47.9998C49.5865 47.9998 48.8909 47.7099 48.4851 47.1882C48.0793 46.6665 47.8474 45.9128 47.8474 45.0433V39.0143C47.8474 38.5505 47.9054 38.1447 48.0213 37.7969C48.1372 37.4491 48.3111 37.1012 48.4851 36.8694C48.7169 36.6375 48.9488 36.4056 49.2967 36.2896C49.6445 36.1157 50.0503 36.0578 50.514 36.0578ZM61.0648 45.565L60.601 47.9418H59.3836L61.6445 36.1737H63.5575L65.8184 47.9418H64.4851L64.0213 45.565H61.0648ZM61.2387 44.4056H63.8474L62.514 37.623L61.2387 44.4056ZM76.543 47.8839H75.2677L73.3546 38.5505V47.8839H72.1952V36.1737H74.0503L75.9633 45.565L77.8184 36.1737H79.6735V47.8839H78.3981V38.4346L76.543 47.8839ZM90.572 41.3331V42.5505H87.6735V46.7244H91.2097V47.8839H86.3981V36.1737H91.2097V37.3331H87.6735V41.3331H90.572ZM100.253 36.0578C101.123 36.0578 101.818 36.3476 102.224 36.8694C102.63 37.3911 102.862 38.0868 102.862 39.0143V39.3621H101.644V38.9563C101.644 38.4346 101.529 38.0288 101.297 37.7389C101.065 37.4491 100.717 37.2752 100.253 37.2752C99.7894 37.2752 99.4416 37.3911 99.2097 37.7389C98.9778 38.0288 98.8619 38.4346 98.8619 38.9563C98.8619 39.4201 98.9778 39.7679 99.1517 40.1157C99.3257 40.4636 99.6155 40.7534 99.9054 41.0433C100.195 41.3331 100.485 41.565 100.833 41.8549C101.181 42.1447 101.471 42.4346 101.76 42.7244C102.05 43.0143 102.282 43.4201 102.514 43.7679C102.688 44.1737 102.804 44.6375 102.804 45.1592C102.804 46.0288 102.572 46.7824 102.166 47.3041C101.76 47.8259 101.065 48.1157 100.137 48.1157C99.2097 48.1157 98.572 47.8259 98.1662 47.3041C97.7604 46.7824 97.5285 46.0868 97.5285 45.1592V44.4636H98.7459V45.2172C98.7459 45.7389 98.8619 46.1447 99.0938 46.4346C99.3257 46.7244 99.6735 46.8983 100.137 46.8983C100.601 46.8983 100.949 46.7244 101.181 46.4346C101.413 46.1447 101.529 45.7389 101.529 45.2172C101.529 44.7534 101.413 44.4056 101.239 44.0578C101.065 43.7099 100.775 43.4201 100.485 43.1882C100.195 42.8983 99.9054 42.6665 99.5575 42.3766C99.2097 42.0868 98.9199 41.7969 98.63 41.507C98.3401 41.2172 98.1083 40.8114 97.8764 40.4636C97.7025 40.0578 97.5865 39.594 97.5865 39.0723C97.5865 38.1447 97.8184 37.4491 98.2242 36.9273C98.7459 36.2896 99.3836 36.0578 100.253 36.0578Z" fill="#0A090A"/>
</g>
<defs>
<clipPath id="clip0_1270_84947">
<rect width="102.74" height="48" fill="white" transform="translate(5.46289)"/>
</clipPath>
</defs>
</svg>
