<svg width="48" height="18" viewBox="0 0 48 18" fill="none" xmlns="http://www.w3.org/2000/svg">
<g opacity="0.7">
<path d="M20.8566 16.2827H17.1021L19.4504 1.76221H23.2048L20.8566 16.2827Z" fill="#0E0D0F"/>
<path d="M34.4672 2.1182C33.7266 1.82439 32.5521 1.5 31.0997 1.5C27.3919 1.5 24.781 3.47716 24.765 6.3039C24.7342 8.38946 26.6343 9.54784 28.0555 10.2432C29.5081 10.9538 30.0019 11.4176 30.0019 12.051C29.9871 13.0238 28.8281 13.4722 27.7471 13.4722C26.2481 13.4722 25.445 13.241 24.2244 12.6998L23.73 12.4678L23.2046 15.7273C24.0852 16.1285 25.7076 16.4845 27.3919 16.5001C31.3315 16.5001 33.8962 14.5536 33.9266 11.5412C33.9416 9.88824 32.9382 8.62167 30.7751 7.58669C29.4619 6.9223 28.6577 6.47431 28.6577 5.79452C28.6731 5.17653 29.3379 4.54355 30.8202 4.54355C32.0408 4.51255 32.9376 4.80594 33.617 5.09954L33.9566 5.25373L34.4672 2.1182Z" fill="#0E0D0F"/>
<path fill-rule="evenodd" clip-rule="evenodd" d="M41.1858 1.76514H44.0899L47.1189 16.2854H43.6425C43.6425 16.2854 43.3023 14.6171 43.1945 14.1073H38.374C38.2346 14.4933 37.586 16.2854 37.586 16.2854H33.6465L39.2234 2.96991C39.6098 2.02753 40.2902 1.76514 41.1858 1.76514ZM40.9522 7.07966C40.9522 7.07966 39.7624 10.3082 39.4532 11.1424H42.5739C42.4195 10.4164 41.7085 6.94066 41.7085 6.94066L41.4461 5.68949C41.3356 6.01167 41.1759 6.45461 41.0681 6.75337C40.995 6.95591 40.9459 7.09218 40.9522 7.07966Z" fill="#0E0D0F"/>
<path d="M13.9674 1.76221L10.2905 11.6638L9.88867 9.65565C9.20888 7.33849 7.07691 4.82095 4.69775 3.56916L8.0657 16.2673H12.036L17.9375 1.76221H13.9674V1.76221Z" fill="#0E0D0F"/>
<path d="M6.87447 1.76221H0.833772L0.771973 2.0556C5.4841 3.26058 8.60485 6.16513 9.88702 9.65626L8.57384 2.98279C8.35765 2.05539 7.69326 1.7928 6.87447 1.76221Z" fill="#0E0D0F" fill-opacity="0.7"/>
</g>
</svg>
