<svg width="24" height="24" viewBox="0 0 24 24" fill="none" xmlns="http://www.w3.org/2000/svg">
<path fill-rule="evenodd" clip-rule="evenodd" d="M18.9635 9.13802C18.9514 8.84635 18.918 8.55469 18.8633 8.26302C18.8086 7.97135 18.7326 7.69184 18.6354 7.42448C18.4531 6.95052 18.1827 6.53429 17.8242 6.17578C17.4657 5.81727 17.0556 5.54687 16.5937 5.36458C16.3142 5.26736 16.0317 5.1914 15.7461 5.13671C15.4605 5.08203 15.1719 5.05468 14.8802 5.05468C14.5035 5.03038 14.1662 5.01519 13.8685 5.00911C13.5707 5.00304 12.9479 5 12 5C11.0521 5 10.4262 5.00304 10.1224 5.00911C9.81858 5.01519 9.48438 5.03038 9.11979 5.05468C8.82812 5.05468 8.5395 5.08203 8.25391 5.13671C7.96831 5.1914 7.68576 5.26736 7.40625 5.36458C6.94444 5.54687 6.53429 5.81727 6.17578 6.17578C5.81727 6.53429 5.54688 6.95052 5.36458 7.42448C5.26736 7.69184 5.19141 7.96831 5.13672 8.2539C5.08203 8.53949 5.04861 8.82812 5.03646 9.11979C5.02431 9.49653 5.01519 9.83376 5.00911 10.1315C5.00304 10.4293 5 11.0521 5 12C5 12.9479 5 13.5738 5 13.8776C5 14.1814 5.01215 14.5217 5.03646 14.8984C5.04861 15.1901 5.08203 15.4757 5.13672 15.7552C5.19141 16.0347 5.26736 16.3142 5.36458 16.5937C5.54688 17.0677 5.81727 17.4809 6.17578 17.8333C6.53429 18.1858 6.95052 18.4531 7.42448 18.6354C7.69184 18.7448 7.96831 18.8299 8.25391 18.8906C8.5395 18.9514 8.82812 18.9818 9.11979 18.9818C9.49653 19.0061 9.83377 19.0213 10.1315 19.0273C10.4293 19.0334 11.0521 19.0365 12 19.0365C12.9479 19.0365 13.5738 19.0334 13.8776 19.0273C14.1814 19.0213 14.5156 19.0061 14.8802 18.9818C15.1719 18.9818 15.4605 18.9544 15.7461 18.8997C16.0317 18.845 16.3142 18.7691 16.5937 18.6719C17.0556 18.4896 17.4657 18.2192 17.8242 17.8607C18.1827 17.5022 18.4531 17.0859 18.6354 16.612C18.7326 16.3446 18.8086 16.0681 18.8633 15.7825C18.918 15.497 18.9514 15.2083 18.9635 14.9167C18.9757 14.5399 18.9848 14.2027 18.9909 13.9049C18.997 13.6072 19 12.9844 19 12.0365C19 11.0764 19 10.4475 19 10.1497C19 9.85199 18.9878 9.51476 18.9635 9.13802ZM12.0002 15.5911C11.5019 15.5911 11.034 15.5 10.5965 15.3177C10.159 15.1233 9.77623 14.865 9.4481 14.543C9.11997 14.2209 8.86477 13.8411 8.68247 13.4036C8.48803 12.9661 8.39081 12.4983 8.39081 12C8.39081 11.5017 8.48803 11.0339 8.68247 10.5964C8.86477 10.1589 9.11997 9.77908 9.4481 9.45703C9.77623 9.13498 10.159 8.87673 10.5965 8.68229C11.034 8.49999 11.5019 8.40885 12.0002 8.40885C12.4984 8.40885 12.9603 8.49999 13.3856 8.68229C13.8231 8.87673 14.2059 9.13498 14.534 9.45703C14.8622 9.77908 15.1174 10.1589 15.2997 10.5964C15.4941 11.0339 15.5913 11.5017 15.5913 12C15.5913 12.4983 15.4941 12.9661 15.2997 13.4036C15.1174 13.8411 14.8622 14.2209 14.534 14.543C14.2059 14.865 13.8231 15.1233 13.3856 15.3177C12.9603 15.5 12.4984 15.5911 12.0002 15.5911ZM15.7368 9.11987C15.5059 9.11987 15.3084 9.03784 15.1443 8.87378C14.9803 8.70971 14.8982 8.51223 14.8982 8.28133C14.8982 8.03827 14.9803 7.83775 15.1443 7.67976C15.3084 7.52178 15.5059 7.44279 15.7368 7.44279C15.9677 7.44279 16.1652 7.52178 16.3292 7.67976C16.4933 7.83775 16.5753 8.03827 16.5753 8.28133C16.5753 8.51223 16.4933 8.70971 16.3292 8.87378C16.1652 9.03784 15.9677 9.11987 15.7368 9.11987ZM14.3331 12C14.3331 12.6441 14.1052 13.194 13.6495 13.6498C13.1937 14.1055 12.6438 14.3334 11.9997 14.3334C11.3556 14.3334 10.8057 14.1055 10.35 13.6498C9.89426 13.194 9.66639 12.6441 9.66639 12C9.66639 11.3559 9.89426 10.806 10.35 10.3503C10.8057 9.89457 11.3556 9.66671 11.9997 9.66671C12.6438 9.66671 13.1937 9.89457 13.6495 10.3503C14.1052 10.806 14.3331 11.3559 14.3331 12Z" fill="white"/>
</svg>
