<svg width="24" height="24" viewBox="0 0 24 24" fill="none" xmlns="http://www.w3.org/2000/svg">
<path d="M13.1567 12.1122C13.1567 14.9335 10.8884 17.2244 8.07837 17.2244C5.26834 17.2244 3 14.9335 3 12.1122C3 9.29091 5.26834 7 8.07837 7C10.8884 7 13.1567 9.29091 13.1567 12.1122ZM18.7204 12.1122C18.7204 14.7643 17.5806 16.9197 16.1812 16.9197C14.7818 16.9197 13.642 14.7643 13.642 12.1122C13.642 9.46019 14.7818 7.3047 16.1812 7.3047C17.5806 7.3047 18.7204 9.4489 18.7204 12.1122ZM21 12.1122C21 14.4934 20.605 16.4232 20.1085 16.4232C19.6119 16.4232 19.2169 14.4934 19.2169 12.1122C19.2169 9.73103 19.6119 7.80125 20.1085 7.80125C20.605 7.80125 21 9.73103 21 12.1122Z" fill="white"/>
</svg>
