<svg width="24" height="24" viewBox="0 0 24 24" fill="none" xmlns="http://www.w3.org/2000/svg">
<path fill-rule="evenodd" clip-rule="evenodd" d="M18.0891 6.08937L4.69984 11.2364C4.25176 11.425 4.01888 11.6284 4.00119 11.8466C3.9835 12.0647 4.16332 12.2328 4.54065 12.3507L7.97199 13.4119L15.9136 8.4064C16.1022 8.28849 16.2585 8.25016 16.3823 8.29144C16.5061 8.33271 16.4973 8.4182 16.3558 8.5479L9.91759 14.367L9.68765 17.9045C9.85273 17.9045 9.98539 17.8691 10.0856 17.7984C10.1858 17.7276 10.2831 17.6451 10.3775 17.5507L12.0401 15.9235L15.5068 18.4882C15.8369 18.665 16.1111 18.7063 16.3292 18.612C16.5474 18.5176 16.6977 18.2818 16.7803 17.9045L19.0442 7.16829C19.1622 6.69663 19.1091 6.36352 18.885 6.16896C18.661 5.9744 18.3957 5.94787 18.0891 6.08937Z" fill="white"/>
</svg>
