<svg width="61" height="42" viewBox="0 0 61 42" fill="none" xmlns="http://www.w3.org/2000/svg">
<path fill-rule="evenodd" clip-rule="evenodd" d="M57.9146 19.1797C55.401 5.14094 49.7809 1 46.7914 1C42.126 1 40.929 4.46836 30.9999 4.58521C21.0707 4.46836 19.8738 1 15.2084 1C12.2189 1 6.59596 5.14094 4.08232 19.1797C2.64881 27.1937 1.09275 39.1577 4.8005 40.5941C9.41454 42.381 10.9791 37.9123 16.0463 34.1361C21.1904 30.3087 23.6585 29.4081 30.9999 29.4081C38.3413 29.4081 40.8093 30.3087 45.9535 34.1361C51.0206 37.9094 52.5853 42.381 57.1993 40.5941C60.9071 39.1577 59.351 27.1965 57.9146 19.1797ZM19.6002 21.0008C18.0885 21.0008 16.6387 20.4003 15.5698 19.3313C14.5008 18.2624 13.9003 16.8126 13.9003 15.3009C13.9003 13.7892 14.5008 12.3395 15.5698 11.2705C16.6387 10.2016 18.0885 9.60108 19.6002 9.60108C21.1119 9.60108 22.5617 10.2016 23.6306 11.2705C24.6995 12.3395 25.3 13.7892 25.3 15.3009C25.3 16.8126 24.6995 18.2624 23.6306 19.3313C22.5617 20.4003 21.1119 21.0008 19.6002 21.0008ZM39.5497 21.0008C38.7938 21.0008 38.0689 20.7005 37.5345 20.1661C37 19.6316 36.6998 18.9067 36.6998 18.1509C36.6998 17.395 37 16.6701 37.5345 16.1357C38.0689 15.6012 38.7938 15.3009 39.5497 15.3009C40.3055 15.3009 41.0304 15.6012 41.5649 16.1357C42.0993 16.6701 42.3996 17.395 42.3996 18.1509C42.3996 18.9067 42.0993 19.6316 41.5649 20.1661C41.0304 20.7005 40.3055 21.0008 39.5497 21.0008ZM45.2495 15.3009C44.4937 15.3009 43.7688 15.0007 43.2343 14.4662C42.6999 13.9318 42.3996 13.2069 42.3996 12.451C42.3996 11.6952 42.6999 10.9703 43.2343 10.4358C43.7688 9.90134 44.4937 9.60108 45.2495 9.60108C46.0054 9.60108 46.7303 9.90134 47.2647 10.4358C47.7992 10.9703 48.0995 11.6952 48.0995 12.451C48.0995 13.2069 47.7992 13.9318 47.2647 14.4662C46.7303 15.0007 46.0054 15.3009 45.2495 15.3009Z" fill="url(#paint0_linear_3362_2274)"/>
<path fill-rule="evenodd" clip-rule="evenodd" d="M57.9146 19.1797C55.401 5.14094 49.7809 1 46.7914 1C42.126 1 40.929 4.46836 30.9999 4.58521C21.0707 4.46836 19.8738 1 15.2084 1C12.2189 1 6.59596 5.14094 4.08232 19.1797C2.64881 27.1937 1.09275 39.1577 4.8005 40.5941C9.41454 42.381 10.9791 37.9123 16.0463 34.1361C21.1904 30.3087 23.6585 29.4081 30.9999 29.4081C38.3413 29.4081 40.8093 30.3087 45.9535 34.1361C51.0206 37.9094 52.5853 42.381 57.1993 40.5941C60.9071 39.1577 59.351 27.1965 57.9146 19.1797ZM19.6002 21.0008C18.0885 21.0008 16.6387 20.4003 15.5698 19.3313C14.5008 18.2624 13.9003 16.8126 13.9003 15.3009C13.9003 13.7892 14.5008 12.3395 15.5698 11.2705C16.6387 10.2016 18.0885 9.60108 19.6002 9.60108C21.1119 9.60108 22.5617 10.2016 23.6306 11.2705C24.6995 12.3395 25.3 13.7892 25.3 15.3009C25.3 16.8126 24.6995 18.2624 23.6306 19.3313C22.5617 20.4003 21.1119 21.0008 19.6002 21.0008ZM39.5497 21.0008C38.7938 21.0008 38.0689 20.7005 37.5345 20.1661C37 19.6316 36.6998 18.9067 36.6998 18.1509C36.6998 17.395 37 16.6701 37.5345 16.1357C38.0689 15.6012 38.7938 15.3009 39.5497 15.3009C40.3055 15.3009 41.0304 15.6012 41.5649 16.1357C42.0993 16.6701 42.3996 17.395 42.3996 18.1509C42.3996 18.9067 42.0993 19.6316 41.5649 20.1661C41.0304 20.7005 40.3055 21.0008 39.5497 21.0008ZM45.2495 15.3009C44.4937 15.3009 43.7688 15.0007 43.2343 14.4662C42.6999 13.9318 42.3996 13.2069 42.3996 12.451C42.3996 11.6952 42.6999 10.9703 43.2343 10.4358C43.7688 9.90134 44.4937 9.60108 45.2495 9.60108C46.0054 9.60108 46.7303 9.90134 47.2647 10.4358C47.7992 10.9703 48.0995 11.6952 48.0995 12.451C48.0995 13.2069 47.7992 13.9318 47.2647 14.4662C46.7303 15.0007 46.0054 15.3009 45.2495 15.3009Z" fill="black" fill-opacity="0.2"/>
<defs>
<linearGradient id="paint0_linear_3362_2274" x1="2.50098" y1="20.6667" x2="59.4985" y2="20.6667" gradientUnits="userSpaceOnUse">
<stop stop-color="#3DAFE2"/>
<stop offset="1" stop-color="#6F76C0"/>
</linearGradient>
</defs>
</svg>
