<?xml version="1.0" encoding="utf-8"?><svg xmlns="http://www.w3.org/2000/svg" xmlns:xlink="http://www.w3.org/1999/xlink"><symbol viewBox="0 -960 960 960" id="account" xmlns="http://www.w3.org/2000/svg"><path d="M247.85-260.62q51-36.69 108.23-58.03Q413.31-340 480-340t123.92 21.35q57.23 21.34 108.23 58.03 39.62-41 63.73-96.84Q800-413.31 800-480q0-133-93.5-226.5T480-800q-133 0-226.5 93.5T160-480q0 66.69 24.12 122.54 24.11 55.84 63.73 96.84ZM480.02-460q-50.56 0-85.29-34.71Q360-529.42 360-579.98q0-50.56 34.71-85.29Q429.42-700 479.98-700q50.56 0 85.29 34.71Q600-630.58 600-580.02q0 50.56-34.71 85.29Q530.58-460 480.02-460ZM480-120q-75.31 0-141-28.04t-114.31-76.65Q176.08-273.31 148.04-339 120-404.69 120-480t28.04-141q28.04-65.69 76.65-114.31 48.62-48.61 114.31-76.65Q404.69-840 480-840t141 28.04q65.69 28.04 114.31 76.65 48.61 48.62 76.65 114.31Q840-555.31 840-480t-28.04 141q-28.04 65.69-76.65 114.31-48.62 48.61-114.31 76.65Q555.31-120 480-120Zm0-40q55.31 0 108.85-19.35 53.53-19.34 92.53-52.96-39-31.31-90.23-49.5Q539.92-300 480-300q-59.92 0-111.54 17.81-51.61 17.81-89.84 49.88 39 33.62 92.53 52.96Q424.69-160 480-160Zm0-340q33.69 0 56.85-23.15Q560-546.31 560-580t-23.15-56.85Q513.69-660 480-660t-56.85 23.15Q400-613.69 400-580t23.15 56.85Q446.31-500 480-500Zm0-80Zm0 350Z"/></symbol><symbol viewBox="0 0 39 28" id="lofo" xmlns="http://www.w3.org/2000/svg"><path fill-rule="evenodd" clip-rule="evenodd" d="M37.61 12.787C35.935 3.427 32.188.667 30.195.667c-3.11 0-3.908 2.312-10.528 2.39C13.047 2.98 12.25.667 9.14.667c-1.993 0-5.742 2.76-7.418 12.12-.955 5.342-1.993 13.318.479 14.276 3.076 1.191 4.12-1.788 7.497-4.305 3.43-2.552 5.075-3.152 9.97-3.152 4.893 0 6.539.6 9.968 3.152 3.378 2.515 4.421 5.496 7.497 4.305 2.472-.957 1.435-8.932.477-14.276ZM12.067 14a3.8 3.8 0 1 1 0-7.6 3.8 3.8 0 0 1 0 7.6Zm13.3 0a1.9 1.9 0 1 1 0-3.8 1.9 1.9 0 0 1 0 3.8Zm3.8-3.8a1.9 1.9 0 1 1 0-3.8 1.9 1.9 0 0 1 0 3.8Z"/><path fill-rule="evenodd" clip-rule="evenodd" d="M37.61 12.787C35.935 3.427 32.188.667 30.195.667c-3.11 0-3.908 2.312-10.528 2.39C13.047 2.98 12.25.667 9.14.667c-1.993 0-5.742 2.76-7.418 12.12-.955 5.342-1.993 13.318.479 14.276 3.076 1.191 4.12-1.788 7.497-4.305 3.43-2.552 5.075-3.152 9.97-3.152 4.893 0 6.539.6 9.968 3.152 3.378 2.515 4.421 5.496 7.497 4.305 2.472-.957 1.435-8.932.477-14.276ZM12.067 14a3.8 3.8 0 1 1 0-7.6 3.8 3.8 0 0 1 0 7.6Zm13.3 0a1.9 1.9 0 1 1 0-3.8 1.9 1.9 0 0 1 0 3.8Zm3.8-3.8a1.9 1.9 0 1 1 0-3.8 1.9 1.9 0 0 1 0 3.8Z" fill-opacity=".2"/></symbol><symbol viewBox="0 -960 960 960" id="routine" xmlns="http://www.w3.org/2000/svg"><path d="M409.85-409.85q-38.16-38.15-68.5-81.61-30.35-43.46-53.12-92.46-14.23 24-20.73 50.04Q261-507.85 261-480q0 91.34 63.83 155.17Q388.66-261 480-261q27.08 0 53.88-7 26.81-7 50.04-20.23-49-22.77-92.46-53.12-43.46-30.34-81.61-68.5Zm28.53-27.53q47.16 47.15 104.77 82.5 57.62 35.34 122.7 56.88-36.16 37.15-84.16 57.58Q533.69-220 481-220q-108.64 0-184.32-75.68Q221-371.36 221-480q0-52.69 20.42-100.69 20.43-48 57.58-84.16 21.54 65.08 56.88 122.7 35.35 57.61 82.5 104.77Zm283.08 56.61q-10.09-2.74-19.93-6.02-9.84-3.29-19.61-6.67 8.77-20.31 13.43-42.27 4.65-21.96 4.65-43.99 0-91.42-64.43-155.85Q571.14-700 479.72-700q-22.03 0-43.99 4.27t-42.27 13.04q-3.38-9.77-6.24-18.94-2.85-9.18-5.45-18.83Q405-730.23 430-735.12q25-4.88 51-4.88 108.64 0 184.32 75.68Q741-588.64 741-480q0 26-4.88 51-4.89 25-14.66 48.23ZM460-829.23v-95.39h40v95.39h-40Zm0 793.85v-95.39h40v95.39h-40Zm281.46-677.54-28.54-28.54L778.69-807l28.54 28.31-65.77 65.77ZM181.31-153l-28.54-28.31 65.77-65.77 28.54 28.54L181.31-153Zm647.92-307v-40h95.39v40h-95.39Zm-793.85 0v-40h95.39v40H35.38Zm743.31 307.23-65.77-65.77 28.54-28.54L807-181.31l-28.31 28.54ZM218.54-712.92 153-778.69l28.31-28.54 65.77 65.77-28.54 28.54Zm191.31 303.07Z"/></symbol><symbol viewBox="0 -960 960 960" id="search" xmlns="http://www.w3.org/2000/svg"><path d="M779.38-153.85 528.92-404.31q-30 25.54-69 39.54t-78.38 14q-96.1 0-162.67-66.53-66.56-66.53-66.56-162.57 0-96.05 66.53-162.71 66.53-66.65 162.57-66.65 96.05 0 162.71 66.56Q610.77-676.1 610.77-580q0 41.69-14.77 80.69t-38.77 66.69l250.46 250.47-28.31 28.3ZM381.54-390.77q79.61 0 134.42-54.81 54.81-54.8 54.81-134.42 0-79.62-54.81-134.42-54.81-54.81-134.42-54.81-79.62 0-134.42 54.81-54.81 54.8-54.81 134.42 0 79.62 54.81 134.42 54.8 54.81 134.42 54.81Z"/></symbol><symbol viewBox="0 -960 960 960" id="shopping-bag" xmlns="http://www.w3.org/2000/svg"><path d="M264.62-120q-27.62 0-46.12-18.5Q200-157 200-184.62v-430.76q0-27.62 18.5-46.12Q237-680 264.62-680H340v-20q0-58.31 40.85-99.15Q421.69-840 480-840t99.15 40.85Q620-758.31 620-700v20h75.38q27.62 0 46.12 18.5Q760-643 760-615.38v430.76q0 27.62-18.5 46.12Q723-120 695.38-120H264.62Zm0-40h430.76q9.24 0 16.93-7.69 7.69-7.69 7.69-16.93v-430.76q0-9.24-7.69-16.93-7.69-7.69-16.93-7.69H620v100q0 8.54-5.73 14.27T600-520q-8.54 0-14.27-5.73T580-540v-100H380v100q0 8.54-5.73 14.27T360-520q-8.54 0-14.27-5.73T340-540v-100h-75.38q-9.24 0-16.93 7.69-7.69 7.69-7.69 16.93v430.76q0 9.24 7.69 16.93 7.69 7.69 16.93 7.69ZM380-680h200v-20q0-42.23-28.88-71.12Q522.23-800 480-800q-42.23 0-71.12 28.88Q380-742.23 380-700v20ZM240-160v-480 480Z"/></symbol><symbol stroke-width="2" stroke-linecap="round" stroke-linejoin="round" class="flucide flucide-sticky-note" viewBox="0 0 24 24" id="sticky-note" xmlns="http://www.w3.org/2000/svg"><path d="M16 3H5a2 2 0 0 0-2 2v14a2 2 0 0 0 2 2h14a2 2 0 0 0 2-2V8Z"/><path d="M15 3v4a2 2 0 0 0 2 2h4"/></symbol></svg>