<svg width="25" height="20" viewBox="0 0 25 20" fill="none" xmlns="http://www.w3.org/2000/svg">
<path d="M24.3987 15.0412C23.9171 15.6489 22.7385 16.0813 22.7385 16.0813L13.9748 19.2292V16.9075L20.4245 14.6104C21.1569 14.3488 21.2692 13.9765 20.6738 13.7826C20.0799 13.5872 19.0044 13.6441 18.2736 13.9057L13.9748 15.4197V13.0102L14.2225 12.9272C14.2225 12.9272 15.4641 12.4871 17.2104 12.2933C18.9567 12.1009 21.0953 12.3194 22.7739 12.9549C24.6664 13.5549 24.8787 14.435 24.3987 15.0412ZM14.8087 11.0901V5.15115C14.8087 4.45417 14.681 3.81258 14.0271 3.63102C13.5255 3.46947 13.2147 3.93566 13.2147 4.6311V19.5L9.20514 18.2276V0.5C10.9099 0.816949 13.3932 1.5647 14.7287 2.01551C18.1243 3.18022 19.2752 4.6311 19.2752 7.9006C19.2752 11.087 17.3089 12.2948 14.8087 11.0885V11.0901ZM1.84763 16.6675C-0.0940704 16.1166 -0.417173 14.9781 0.467514 14.3227C1.28604 13.7165 2.67692 13.261 2.67692 13.261L8.42662 11.2147V13.5457L4.28782 15.0273C3.55853 15.2889 3.44622 15.6597 4.04011 15.8551C4.63401 16.049 5.70948 15.9936 6.4403 15.732L8.42508 15.0104V17.0967L8.02966 17.1629C5.95906 17.4981 3.83809 17.3276 1.84763 16.6659V16.6675Z" fill="#6F76C0"/>
</svg>
